<svg width="382" height="84" viewBox="0 0 382 84" fill="none" xmlns="http://www.w3.org/2000/svg">
<path d="M7.06101 66V1.6H38.801C45.4863 1.6 50.6077 2.98 54.165 5.74C57.7223 8.43867 59.501 11.9347 59.501 16.228C59.501 20.3373 57.9677 23.588 54.901 25.98C51.8343 28.3107 47.8477 29.568 42.941 29.752V34.536C48.5223 34.6587 53.0303 35.9467 56.465 38.4C59.8997 40.792 61.617 44.3493 61.617 49.072C61.617 54.224 59.501 58.3333 55.269 61.4C51.037 64.4667 45.2717 66 37.973 66H7.06101ZM21.045 27.084H35.765C42.2663 27.084 45.517 24.7533 45.517 20.092C45.517 17.6387 44.689 15.8907 43.033 14.848C41.4383 13.744 39.0157 13.192 35.765 13.192H21.045V27.084ZM21.045 54.408H35.949C43.4317 54.408 47.173 51.74 47.173 46.404C47.173 41.0067 43.4317 38.308 35.949 38.308H21.045V54.408ZM146.605 66V1.6H168.133L196.745 49.44L200.885 46.588C198.37 42.356 196.745 39.1053 196.009 36.836C195.334 34.5053 194.966 30.856 194.905 25.888V1.6H208.889V66H192.053L158.657 10.064L154.425 12.732C156.694 16.964 158.289 20.5827 159.209 23.588C160.129 26.5933 160.589 30.488 160.589 35.272V66H146.605ZM222.756 66V1.6H251.644C258.574 1.6 264.186 3.50133 268.48 7.304C272.773 11.0453 274.92 16.0747 274.92 22.392C274.92 28.7093 272.773 33.8 268.48 37.664C264.186 41.4667 258.605 43.368 251.736 43.368H236.74V66H222.756ZM236.74 31.776H249.16C252.533 31.776 255.232 30.948 257.256 29.292C259.341 27.5747 260.384 25.2747 260.384 22.392C260.384 19.632 259.341 17.424 257.256 15.768C255.17 14.0507 252.472 13.192 249.16 13.192H236.74V31.776ZM318.094 66L312.942 50.912H286.814L281.478 66H266.482L291.046 1.6H309.17L333.55 66H318.094ZM290.862 39.32H308.986L304.202 25.336C303.098 22.2693 302.516 16.964 302.454 9.42H297.486C297.364 14.204 297.21 17.424 297.026 19.08C296.842 21.1653 296.413 23.2813 295.738 25.428L290.862 39.32ZM342.74 66V39.78L319.372 1.6H335.564L342.832 14.112C344.182 16.3813 345.194 18.5587 345.868 20.644C346.85 23.3427 347.371 27.5747 347.432 33.34H352.4C352.523 28.9853 352.86 25.5507 353.412 23.036C353.964 20.5213 355.222 17.4853 357.184 13.928L363.9 1.6H379.632L356.724 39.78V66H342.74Z" fill="black"/>
<path d="M67.758 33.984C67.758 24.1707 70.886 16.0747 77.142 9.696C83.4593 3.31733 91.8007 0.127998 102.166 0.127998C112.531 0.127998 120.842 3.31733 127.098 9.696C133.415 16.0747 136.574 24.1707 136.574 33.984C136.697 43.736 133.599 51.7707 127.282 58.088C120.965 64.4053 112.593 67.5333 102.166 67.472C91.7393 67.5333 83.3673 64.4053 77.05 58.088C70.7327 51.7707 67.6353 43.736 67.758 33.984ZM121.946 33.892C121.946 27.3293 120.167 21.9933 116.61 17.884C113.053 13.7747 108.269 11.72 102.258 11.72C96.1247 11.72 91.2793 13.7747 87.722 17.884C84.1647 21.9933 82.386 27.3293 82.386 33.892C82.386 40.3933 84.1647 45.6987 87.722 49.808C91.2793 53.856 96.1247 55.88 102.258 55.88C108.269 55.88 113.053 53.856 116.61 49.808C120.167 45.6987 121.946 40.3933 121.946 33.892Z" fill="#7B61FF"/>
<path d="M314.69 72.47H316.955V74.48H314.69V72.47ZM316.895 75.5V83H314.765V77.12H311.84V83H309.71V77.12H308.255V75.5H309.71V74.465C309.71 73.865 309.875 73.39 310.205 73.04C310.535 72.68 310.995 72.5 311.585 72.5H313.895V74.195H312.5C312.27 74.195 312.1 74.25 311.99 74.36C311.89 74.46 311.84 74.625 311.84 74.855V75.5H316.895ZM318.682 83V75.5H320.602C320.592 75.95 320.347 76.525 319.867 77.225H320.797C320.997 76.625 321.292 76.15 321.682 75.8C322.072 75.45 322.542 75.275 323.092 75.275C323.902 75.275 324.527 75.525 324.967 76.025C325.417 76.515 325.642 77.185 325.642 78.035V83H323.512V78.44C323.512 77.5 323.112 77.03 322.312 77.03C321.862 77.03 321.527 77.165 321.307 77.435C320.977 77.835 320.812 78.505 320.812 79.445V83H318.682ZM326.943 81.08C326.953 80.59 327.073 80.165 327.303 79.805C327.533 79.445 327.863 79.155 328.293 78.935C328.733 78.715 329.218 78.545 329.748 78.425C330.288 78.295 330.923 78.195 331.653 78.125V77.84C331.653 77.15 331.243 76.805 330.423 76.805C329.513 76.805 328.963 77.2 328.773 77.99L326.853 77.57C326.913 76.94 327.263 76.4 327.903 75.95C328.553 75.5 329.388 75.275 330.408 75.275C331.488 75.275 332.313 75.52 332.883 76.01C333.463 76.5 333.753 77.225 333.753 78.185V80.93C333.753 81.13 333.778 81.255 333.828 81.305C333.878 81.355 334.003 81.38 334.203 81.38H334.863V83H333.978C333.338 83 332.908 82.89 332.688 82.67C332.478 82.44 332.363 82.03 332.343 81.44H331.638C331.258 82.64 330.493 83.24 329.343 83.24C328.653 83.24 328.078 83.04 327.618 82.64C327.168 82.24 326.943 81.72 326.943 81.08ZM331.653 79.925V79.445C330.793 79.555 330.153 79.71 329.733 79.91C329.313 80.11 329.103 80.43 329.103 80.87C329.103 81.41 329.428 81.68 330.078 81.68C330.528 81.68 330.903 81.53 331.203 81.23C331.503 80.93 331.653 80.495 331.653 79.925ZM335.736 83V75.5H337.656C337.646 75.95 337.401 76.525 336.921 77.225H337.851C338.051 76.625 338.346 76.15 338.736 75.8C339.126 75.45 339.596 75.275 340.146 75.275C340.956 75.275 341.581 75.525 342.021 76.025C342.471 76.515 342.696 77.185 342.696 78.035V83H340.566V78.44C340.566 77.5 340.166 77.03 339.366 77.03C338.916 77.03 338.581 77.165 338.361 77.435C338.031 77.835 337.866 78.505 337.866 79.445V83H335.736ZM343.921 79.235C343.921 78.065 344.306 77.115 345.076 76.385C345.846 75.645 346.806 75.275 347.956 75.275C348.816 75.275 349.561 75.48 350.191 75.89C350.821 76.3 351.266 76.845 351.526 77.525L349.561 78.26C349.251 77.39 348.691 76.955 347.881 76.955C347.351 76.955 346.916 77.155 346.576 77.555C346.236 77.955 346.066 78.515 346.066 79.235C346.066 79.955 346.236 80.52 346.576 80.93C346.926 81.34 347.366 81.545 347.896 81.545C348.716 81.545 349.296 81.07 349.636 80.12L351.646 80.84C351.356 81.57 350.881 82.155 350.221 82.595C349.561 83.025 348.801 83.24 347.941 83.24C346.771 83.24 345.806 82.87 345.046 82.13C344.296 81.39 343.921 80.425 343.921 79.235ZM352.236 79.235C352.236 78.085 352.596 77.14 353.316 76.4C354.036 75.65 354.941 75.275 356.031 75.275C357.161 75.275 358.051 75.645 358.701 76.385C359.351 77.125 359.676 78.08 359.676 79.25C359.676 79.48 359.671 79.65 359.661 79.76H354.366C354.396 80.37 354.561 80.835 354.861 81.155C355.161 81.465 355.556 81.62 356.046 81.62C356.826 81.62 357.406 81.185 357.786 80.315L359.691 81.05C359.431 81.65 359.011 82.17 358.431 82.61C357.861 83.03 357.066 83.24 356.046 83.24C354.896 83.24 353.971 82.88 353.271 82.16C352.581 81.43 352.236 80.455 352.236 79.235ZM354.441 78.26H357.561C357.451 77.29 356.941 76.805 356.031 76.805C355.601 76.805 355.246 76.93 354.966 77.18C354.686 77.43 354.511 77.79 354.441 78.26Z" fill="black"/>
<circle cx="102" cy="33" r="11" fill="black"/>
</svg>
