<svg width="24" height="24" viewBox="0 0 24 24" fill="none" xmlns="http://www.w3.org/2000/svg">
<path d="M23.0153 6.53442C22.9729 6.43234 22.9014 6.345 22.8097 6.28331C22.718 6.22162 22.6102 6.18831 22.4997 6.18754H19.5372C19.171 5.515 18.6323 4.95209 17.9766 4.55666C17.3208 4.16122 16.5716 3.94753 15.8059 3.93754C14.6554 3.93254 13.5498 4.3835 12.7311 5.19172C11.9123 5.99994 11.4471 7.09961 11.4372 8.25004V9.06567C7.46216 8.11879 4.18091 4.88442 4.14341 4.85629C4.07113 4.78494 3.98089 4.73449 3.88225 4.7103C3.78362 4.6861 3.68028 4.68906 3.58319 4.71886C3.4861 4.74866 3.39889 4.80419 3.33081 4.87955C3.26274 4.95492 3.21634 5.04731 3.19653 5.14692C2.38091 9.60942 3.72153 12.5907 4.98716 14.3063C5.65841 15.2249 6.48298 16.0209 7.42466 16.6594C5.97153 18.4219 3.58091 19.3407 3.55278 19.35C3.47291 19.3795 3.4009 19.4269 3.34236 19.4887C3.28382 19.5505 3.24034 19.6249 3.21528 19.7063C3.18868 19.7857 3.18076 19.8701 3.19214 19.953C3.20353 20.036 3.2339 20.1152 3.28091 20.1844C3.37466 20.325 4.29341 21.5625 7.49966 21.5625C14.034 21.5625 19.4997 16.5094 20.0247 10.0219L22.8934 7.14379C22.9747 7.0676 23.0302 6.9679 23.052 6.85864C23.0739 6.74938 23.061 6.63602 23.0153 6.53442ZM19.0778 9.37504C18.9803 9.47233 18.9233 9.603 18.9184 9.74067C18.534 15.7407 13.5184 20.4375 7.49966 20.4375C6.19653 20.4375 5.36216 20.2125 4.86528 19.9875C5.92466 19.4532 7.65903 18.4032 8.71841 16.8094C8.76061 16.7433 8.78901 16.6694 8.8019 16.5921C8.81479 16.5147 8.8119 16.4356 8.79341 16.3594C8.77342 16.2815 8.7372 16.2086 8.68712 16.1456C8.63704 16.0826 8.57423 16.0309 8.50278 15.9938C8.48403 15.9938 7.07778 15.2625 5.85903 13.5938C4.40591 11.6063 3.83403 9.17817 4.15278 6.37504C5.52153 7.53754 8.47466 9.73129 11.9059 10.3032C11.9867 10.3185 12.0698 10.3157 12.1493 10.2948C12.2289 10.274 12.3027 10.2357 12.3656 10.1827C12.4284 10.1297 12.4787 10.0634 12.5127 9.98855C12.5467 9.91371 12.5636 9.83223 12.5622 9.75004V8.25004C12.5696 7.40046 12.9129 6.58835 13.5172 5.9911C14.1215 5.39386 14.9375 5.06003 15.7872 5.06254C16.4011 5.0714 16.9995 5.25634 17.5114 5.59537C18.0232 5.93439 18.427 6.41326 18.6747 6.97504C18.7174 7.0761 18.7893 7.16215 18.8811 7.22225C18.9729 7.28235 19.0806 7.31378 19.1903 7.31254H21.1403L19.0778 9.37504Z" fill="white"/>
</svg>
