<svg width="25" height="25" viewBox="0 0 25 25" fill="none" xmlns="http://www.w3.org/2000/svg">
<path fill-rule="evenodd" clip-rule="evenodd" d="M12.7542 9.78516C12.9358 9.78516 13.0828 9.93443 13.0828 10.1186V12.1184H20.1513C20.3329 12.1184 20.4799 12.2677 20.4799 12.4519V14.7851C20.4799 14.9693 20.3329 15.1185 20.1513 15.1185C19.9696 15.1185 19.8224 14.9693 19.8224 14.7851V12.7853H5.35671V14.7851C5.35671 14.9693 5.20948 15.1185 5.02785 15.1185C4.84622 15.1185 4.69922 14.9693 4.69922 14.7851V12.4519C4.69922 12.2677 4.84622 12.1184 5.02785 12.1184H12.4251V10.1186C12.4251 9.93443 12.5723 9.78516 12.7539 9.78516H12.7542Z" fill="white"/>
<path fill-rule="evenodd" clip-rule="evenodd" d="M8.6438 1.11996H16.5342V5.45307H8.6438V1.11996ZM8.6438 6.11991V7.11972H16.5342V6.11991H8.6438ZM7.98633 1.11996C7.98633 0.751663 8.28055 0.453125 8.6438 0.453125H16.5342C16.8974 0.453125 17.1916 0.751669 17.1916 1.11996V7.1199C17.1916 7.4882 16.8974 7.78674 16.5342 7.78674H12.9179V8.78655H14.2328C14.4144 8.78655 14.5617 8.93582 14.5617 9.11998C14.5617 9.30413 14.4144 9.4534 14.2328 9.4534H10.9452C10.7635 9.4534 10.6163 9.30413 10.6163 9.11998C10.6163 8.93582 10.7635 8.78655 10.9452 8.78655H12.2601V7.78674H8.6438C8.28054 7.78674 7.98633 7.48819 7.98633 7.1199V1.11996Z" fill="white"/>
<path fill-rule="evenodd" clip-rule="evenodd" d="M16.2065 16.12H24.0969V20.4531H16.2065V16.12ZM16.2065 21.1199V22.1197H24.0969V21.1199H16.2065ZM15.5488 16.12C15.5488 15.7517 15.8433 15.4531 16.2065 15.4531H24.0969C24.4602 15.4531 24.7544 15.7517 24.7544 16.12V22.1199C24.7544 22.4882 24.4602 22.7867 24.0969 22.7867H20.4804V23.7865H21.7955C21.9772 23.7865 22.1242 23.9358 22.1242 24.12C22.1242 24.3041 21.9772 24.4534 21.7955 24.4534H18.5079C18.3263 24.4534 18.179 24.3041 18.179 24.12C18.179 23.9358 18.3263 23.7865 18.5079 23.7865H19.8228V22.7867H16.2065C15.8433 22.7867 15.5488 22.4882 15.5488 22.1199V16.12Z" fill="white"/>
<path fill-rule="evenodd" clip-rule="evenodd" d="M1.41161 16.1197H9.30199V20.4528H1.41161V16.1197ZM1.41161 21.1197V22.1195H9.30199V21.1197H1.41161ZM0.753906 16.1197C0.753906 15.7514 1.04836 15.4529 1.41161 15.4529H9.30199C9.66524 15.4529 9.95946 15.7514 9.95946 16.1197V22.1197C9.95946 22.488 9.66523 22.7865 9.30199 22.7865H5.68545V23.7863H7.00063C7.18226 23.7863 7.32926 23.9356 7.32926 24.1197C7.32926 24.3039 7.18226 24.4532 7.00063 24.4532H3.71297C3.53134 24.4532 3.38411 24.3039 3.38411 24.1197C3.38411 23.9356 3.53134 23.7863 3.71297 23.7863H5.02792V22.7865H1.41161C1.04836 22.7865 0.753906 22.4879 0.753906 22.1197V16.1197Z" fill="white"/>
</svg>
