<svg width="24" height="25" viewBox="0 0 24 25" fill="none" xmlns="http://www.w3.org/2000/svg">
<path d="M10.3512 15.7833C10.8135 16.2903 11.655 16.2687 12.0917 15.7356L15.6917 11.525C16.4101 10.7423 15.7739 9.32296 14.7389 9.41867C14.4182 9.43596 14.1233 9.58371 13.908 9.83521L11.154 13.0561L10.0485 11.8925C8.89384 10.7709 7.26115 12.4611 8.35116 13.6786L10.3508 15.7835L10.3512 15.7833ZM8.91766 12.4875C9.06641 12.3243 9.33409 12.3245 9.48282 12.4876L10.8868 13.9651C11.0396 14.1401 11.3209 14.1249 11.4668 13.9491L14.5027 10.3987C14.8569 9.99442 15.4445 10.5429 15.0971 10.9619L11.4971 15.1724C11.4241 15.2579 11.3198 15.3087 11.205 15.3119L11.2 15.7329V15.3119C11.0945 15.3119 10.9918 15.2671 10.9171 15.1886L8.91713 13.0833C8.76124 12.9192 8.76124 12.6519 8.91749 12.4876L8.91766 12.4875Z" fill="white"/>
<path d="M20.4 17.4171H18.1838C18.5656 16.9696 18.8 16.3803 18.8 15.7329V10.2593C18.8 8.86622 17.7234 7.73294 16.4 7.73294V5.62767C16.4 3.07374 14.4262 0.996094 12 0.996094C9.57376 0.996094 7.6 3.07374 7.6 5.62767V7.73294C6.27662 7.73294 5.2 8.86622 5.2 10.2593V15.7329C5.2 16.3803 5.43446 16.9696 5.81623 17.4171H3.6C1.61481 17.4171 0 19.1171 0 21.2066C0 23.2961 1.61481 24.9961 3.6 24.9961H20.4C22.3852 24.9961 24 23.2961 24 21.2066C24 19.1171 22.3852 17.4171 20.4 17.4171ZM8.4 5.62767C8.59821 0.599583 15.4034 0.60247 15.6 5.62767V7.73294H14.4V5.62767C14.4 4.23464 13.3234 3.10136 12 3.10136C10.6766 3.10136 9.6 4.23464 9.6 5.62767V7.73294H8.4V5.62767ZM13.6 5.62767V7.73294H10.4V5.62767C10.467 3.40172 13.5334 3.40249 13.6 5.62767ZM6 10.2593C6 9.33067 6.71749 8.57504 7.6 8.57504H16.4C17.2825 8.57504 18 9.33067 18 10.2593V15.7329C18 16.6615 17.2825 17.4171 16.4 17.4171H7.6C6.71749 17.4171 6 16.6615 6 15.7329V10.2593ZM20.4 24.154H3.6C-0.104823 24.0079 -0.112686 18.4084 3.6 18.2593H20.4C21.9438 18.2593 23.2 19.5815 23.2 21.2066C23.2 22.8318 21.9438 24.154 20.4 24.154Z" fill="white"/>
<path d="M20.7989 20.7856H20.1644L20.613 20.3134C20.7692 20.1489 20.7692 19.8822 20.613 19.7181C20.4567 19.5536 20.2035 19.5536 20.0474 19.7181L19.599 20.1903V19.5226C19.599 19.2901 19.4201 19.1016 19.199 19.1016C18.978 19.1016 18.799 19.2901 18.799 19.5226V20.1903L18.3506 19.7181C18.1944 19.5536 17.9412 19.5536 17.7851 19.7181C17.6289 19.8824 17.6289 20.1491 17.7851 20.3134L18.2337 20.7856H17.5992C17.3781 20.7856 17.1992 20.9741 17.1992 21.2066C17.1992 21.4392 17.3781 21.6277 17.5992 21.6277H18.2337L17.7851 22.0999C17.6289 22.2643 17.6289 22.5311 17.7851 22.6952C17.9414 22.8596 18.1946 22.8596 18.3506 22.6952L18.799 22.223V22.8907C18.799 23.1232 18.978 23.3117 19.199 23.3117C19.4201 23.3117 19.599 23.1232 19.599 22.8907V22.223L20.0474 22.6952C20.2037 22.8596 20.4569 22.8596 20.613 22.6952C20.7692 22.5309 20.7692 22.2641 20.613 22.0999L20.1644 21.6277H20.7989C21.3248 21.6185 21.3246 20.7948 20.7989 20.7856Z" fill="white"/>
<path d="M16 20.7856H15.3656L15.8141 20.3134C15.9704 20.1489 15.9704 19.8822 15.8141 19.7181C15.6579 19.5536 15.4047 19.5536 15.2486 19.7181L14.8002 20.1903V19.5226C14.8002 19.2901 14.6213 19.1016 14.4002 19.1016C14.1791 19.1016 14.0002 19.2901 14.0002 19.5226V20.1903L13.5518 19.7181C13.3956 19.5536 13.1424 19.5536 12.9863 19.7181C12.83 19.8824 12.83 20.1491 12.9863 20.3134L13.4349 20.7856H12.8004C12.5793 20.7856 12.4004 20.9741 12.4004 21.2066C12.4004 21.4392 12.5793 21.6277 12.8004 21.6277H13.4349L12.9863 22.0999C12.83 22.2643 12.83 22.5311 12.9863 22.6952C13.1425 22.8596 13.3958 22.8596 13.5518 22.6952L14.0002 22.223V22.8907C14.0002 23.1232 14.1791 23.3117 14.4002 23.3117C14.6213 23.3117 14.8002 23.1232 14.8002 22.8907V22.223L15.2486 22.6952C15.4049 22.8596 15.6581 22.8596 15.8141 22.6952C15.9704 22.5309 15.9704 22.2641 15.8141 22.0999L15.3656 21.6277H16C16.5259 21.6185 16.5257 20.7948 16 20.7856Z" fill="white"/>
<path d="M11.1993 20.7856H10.5648L11.0134 20.3134C11.1696 20.1489 11.1696 19.8822 11.0134 19.7181C10.8571 19.5536 10.6039 19.5536 10.4478 19.7181L9.99943 20.1903V19.5226C9.99943 19.2901 9.8205 19.1016 9.59943 19.1016C9.37836 19.1016 9.19943 19.2901 9.19943 19.5226V20.1903L8.75104 19.7181C8.59479 19.5536 8.34158 19.5536 8.18551 19.7181C8.02926 19.8824 8.02926 20.1491 8.18551 20.3134L8.63408 20.7856H7.99961C7.77854 20.7856 7.59961 20.9741 7.59961 21.2066C7.59961 21.4392 7.77854 21.6277 7.99961 21.6277H8.63408L8.18551 22.0999C8.02926 22.2643 8.02926 22.5311 8.18551 22.6952C8.34176 22.8596 8.59497 22.8596 8.75104 22.6952L9.19943 22.223V22.8907C9.19943 23.1232 9.37836 23.3117 9.59943 23.3117C9.8205 23.3117 9.99943 23.1232 9.99943 22.8907V22.223L10.4478 22.6952C10.6041 22.8596 10.8573 22.8596 11.0134 22.6952C11.1696 22.5309 11.1696 22.2641 11.0134 22.0999L10.5648 21.6277H11.1993C11.7252 21.6185 11.725 20.7948 11.1993 20.7856Z" fill="white"/>
<path d="M6.40042 20.7856H5.76596L6.21453 20.3134C6.37078 20.1489 6.37078 19.8822 6.21453 19.7181C6.05828 19.5536 5.80506 19.5536 5.649 19.7181L5.2006 20.1903V19.5226C5.2006 19.2901 5.02167 19.1016 4.8006 19.1016C4.57953 19.1016 4.4006 19.2901 4.4006 19.5226V20.1903L3.95221 19.7181C3.79596 19.5536 3.54275 19.5536 3.38668 19.7181C3.23043 19.8824 3.23043 20.1491 3.38668 20.3134L3.83525 20.7856H3.20078C2.97971 20.7856 2.80078 20.9741 2.80078 21.2066C2.80078 21.4392 2.97971 21.6277 3.20078 21.6277H3.83525L3.38668 22.0999C3.23043 22.2643 3.23043 22.5311 3.38668 22.6952C3.54293 22.8596 3.79614 22.8596 3.95221 22.6952L4.4006 22.223V22.8907C4.4006 23.1232 4.57953 23.3117 4.8006 23.3117C5.02167 23.3117 5.2006 23.1232 5.2006 22.8907V22.223L5.649 22.6952C5.80525 22.8596 6.05846 22.8596 6.21453 22.6952C6.37078 22.5309 6.37078 22.2641 6.21453 22.0999L5.76596 21.6277H6.40042C6.92632 21.6185 6.92614 20.7948 6.40042 20.7856Z" fill="white"/>
</svg>
