<svg width="36" height="25" viewBox="0 0 36 25" fill="none" xmlns="http://www.w3.org/2000/svg">
<path d="M18.0003 2.76208C12.1634 2.76208 7.41395 7.35257 7.41395 12.9956C7.41395 18.6387 12.1633 23.2292 18.0003 23.2292C23.8373 23.2292 28.5867 18.6381 28.5867 12.9956C28.5867 7.35312 23.8373 2.76208 18.0003 2.76208ZM18.0003 22.0292C12.8475 22.0292 8.65532 17.9768 8.65532 12.9956C8.65532 8.01449 12.8474 3.96208 18.0003 3.96208C23.1532 3.96208 27.3453 8.01449 27.3453 12.9956C27.3453 17.9768 23.1532 22.0292 18.0003 22.0292ZM15.6902 10.163C15.6902 11.394 16.7268 12.396 18.0003 12.396C19.9585 12.396 21.5517 13.9362 21.5517 15.8291C21.5517 17.5169 20.2838 18.9215 18.621 19.2065V20.3626C18.621 20.6936 18.3428 20.9626 18.0003 20.9626C17.6578 20.9626 17.3796 20.6936 17.3796 20.3626V19.2065C15.7168 18.9215 14.4489 17.5174 14.4489 15.8291C14.4489 15.4981 14.7271 15.2291 15.0696 15.2291C15.412 15.2291 15.6902 15.4981 15.6902 15.8291C15.6902 17.0602 16.7268 18.0622 18.0003 18.0622C19.2738 18.0622 20.3104 17.0602 20.3104 15.8291C20.3104 14.5981 19.2746 13.596 18.0003 13.596C16.0421 13.596 14.4489 12.0559 14.4489 10.163C14.4489 8.47522 15.7168 7.07054 17.3796 6.78556V5.62952C17.3796 5.29845 17.6578 5.02952 18.0003 5.02952C18.3428 5.02952 18.621 5.29845 18.621 5.62952V6.78556C20.2838 7.07056 21.5517 8.47467 21.5517 10.163C21.5517 10.494 21.2735 10.763 20.9311 10.763C20.5886 10.763 20.3104 10.494 20.3104 10.163C20.3104 8.9319 19.2738 7.92987 18.0003 7.92987C16.7268 7.92961 15.6902 8.93163 15.6902 10.163ZM8.50806 20.3718C8.75079 20.6065 8.75079 20.9858 8.50806 21.2201L4.78396 24.8201C4.66288 24.9372 4.50383 24.9961 4.34505 24.9961C4.18628 24.9961 4.02723 24.9372 3.90614 24.8204L0.18205 21.2204C-0.0606832 20.9857 -0.0606832 20.6065 0.18205 20.3721C0.424782 20.1375 0.817139 20.1375 1.05959 20.3721L3.72434 22.9478V1.59609C3.72434 1.26502 4.00254 0.996094 4.34502 0.996094C4.6875 0.996094 4.9657 1.26502 4.9657 1.59609V22.9478L7.63016 20.3721C7.8729 20.1372 8.26525 20.1372 8.50798 20.3718H8.50806ZM35.8181 21.2204L32.094 24.8204C31.9729 24.9372 31.8138 24.9961 31.6551 24.9961C31.4963 24.9961 31.3372 24.9372 31.2162 24.8204L27.4921 21.2204C27.2493 20.9858 27.2493 20.6065 27.4921 20.3721C27.7348 20.1375 28.1271 20.1375 28.3696 20.3721L31.0343 22.9478V1.5961C31.0343 1.26503 31.3125 0.996101 31.655 0.996101C31.9975 0.996101 32.2757 1.26503 32.2757 1.5961V22.9478L34.9402 20.3721C35.1829 20.1375 35.5753 20.1375 35.8177 20.3721C36.0607 20.6065 36.0607 20.9858 35.818 21.2204H35.8181Z" fill="white"/>
</svg>
