<svg width="25" height="25" viewBox="0 0 25 25" fill="none" xmlns="http://www.w3.org/2000/svg">
<path d="M12.5996 0.996094C5.96813 0.996094 0.599609 6.36451 0.599609 12.9961C0.599609 19.6277 5.96802 24.9961 12.5996 24.9961C19.2312 24.9961 24.5996 19.6277 24.5996 12.9961C24.5996 6.36451 19.2312 0.996094 12.5996 0.996094ZM12.5996 23.7326C6.66268 23.7326 1.86311 18.9326 1.86311 12.9961C1.86311 7.05916 6.66289 2.25959 12.5996 2.25959C18.5363 2.25959 23.3361 7.05959 23.3361 12.9961C23.3361 18.933 18.5363 23.7326 12.5996 23.7326ZM11.2733 11.038C10.1997 12.5538 10.5787 15.9011 12.9153 15.7116C13.7994 15.7748 14.3048 15.1432 15.1257 14.9537C15.7574 14.9537 15.8836 15.9643 15.3784 16.28C14.7468 16.7222 14.0521 16.9747 13.2943 17.0379V17.7325C13.2943 18.1115 13.0416 18.3642 12.6626 18.3642C12.2837 18.3642 12.031 18.1115 12.031 17.7325V17.0379C7.98886 16.5327 7.98886 9.58519 12.031 9.08011V8.259C12.031 7.88006 12.2837 7.62736 12.6626 7.62736C13.0416 7.62736 13.2943 7.88006 13.2943 8.259V9.01688C14.1154 9.08011 14.81 9.33259 15.3784 9.77477C16.1363 10.3432 15.3784 11.5432 14.5573 10.9116C13.6102 10.2172 12.0312 10.1539 11.2733 11.038ZM12.5996 4.91219C8.68395 4.91219 5.27358 7.75425 4.5785 11.607C4.51527 11.9227 4.26278 12.1122 3.94686 12.1122H3.82061C3.5049 12.049 3.2522 11.7332 3.31543 11.3543C4.13654 6.87001 8.0522 3.64879 12.5995 3.64879C13.8626 3.64879 15.0626 3.90149 16.2627 4.40668C16.5784 4.53292 16.7048 4.91186 16.5784 5.22779C16.4521 5.5435 16.0732 5.66996 15.7573 5.5435C14.7469 5.10154 13.6731 4.91208 12.5995 4.91208L12.5996 4.91219ZM5.08411 15.9643C5.21036 16.28 5.08411 16.6589 4.70517 16.7854C4.64194 16.7854 4.57893 16.8486 4.45247 16.8486C4.19977 16.8486 3.94729 16.7224 3.88406 16.4697C3.63136 15.775 3.44189 15.0802 3.31565 14.3223C3.25242 14.0066 3.50512 13.6276 3.88406 13.6276C4.19977 13.5644 4.57871 13.8171 4.57871 14.196C4.64194 14.7645 4.83142 15.3959 5.08411 15.9643ZM21.8837 14.638C21.0626 19.1221 17.2101 22.4063 12.6629 22.4063C11.2734 22.4063 9.88412 22.0906 8.62083 21.5222C8.30512 21.3959 8.17866 21.017 8.30512 20.7011C8.43136 20.3853 8.8103 20.2589 9.12623 20.3853C10.1998 20.8905 11.3999 21.1432 12.5999 21.1432C16.5156 21.1432 19.926 18.3012 20.621 14.4484C20.6843 14.1327 21 13.88 21.3789 13.9432C21.7577 13.9432 21.9471 14.2589 21.8839 14.6379L21.8837 14.638ZM20.2417 9.96445C20.1154 9.64874 20.2417 9.2698 20.6206 9.14334C20.9363 9.0171 21.3153 9.14334 21.4417 9.52228C21.6944 10.2169 21.8839 10.9118 22.0101 11.6697C22.0734 11.9854 21.8207 12.3643 21.4417 12.3643H21.3785C21.0628 12.3643 20.8101 12.1116 20.7469 11.7959C20.6206 11.2275 20.4311 10.5961 20.2417 9.96445Z" fill="white"/>
</svg>
