<svg width="24" height="25" viewBox="0 0 24 25" fill="none" xmlns="http://www.w3.org/2000/svg">
<path d="M11.3465 1.22361C11.041 1.38348 10.9083 1.61099 10.8016 1.86593C10.7161 2.07017 10.6635 2.21983 10.5189 2.39178C10.3744 2.5637 10.1256 2.76727 9.61372 2.98422C9.10314 3.20101 8.78322 3.24085 8.55908 3.22511C8.33509 3.20955 8.18961 3.13924 7.98335 3.05888C7.72873 2.95961 7.47191 2.89767 7.14483 3.00615C6.81772 3.11462 6.49865 3.35619 6.06238 3.80082C5.62495 4.24545 5.38757 4.56739 5.28463 4.89648C5.18168 5.2256 5.25349 5.48995 5.35427 5.73585C5.43831 5.94076 5.50912 6.08473 5.52854 6.30854C5.54813 6.53236 5.51431 6.85345 5.30656 7.36824C5.09831 7.88319 4.9006 8.1348 4.73083 8.28227C4.56109 8.42975 4.40774 8.48399 4.20499 8.57305C4.00226 8.66195 3.74429 8.78984 3.57372 9.12885C3.41887 9.43688 3.36413 9.83396 3.36932 10.4574C3.37501 11.0808 3.43595 11.4754 3.59633 11.7807C3.7567 12.0861 3.99609 12.2252 4.23784 12.3263C4.44224 12.4118 4.59458 12.4609 4.76668 12.6054C4.93877 12.7498 5.14284 12.9994 5.35912 13.5105C5.57541 14.0218 5.61291 14.3437 5.59717 14.568C5.58143 14.7924 5.51129 14.9372 5.43094 15.1438C5.35058 15.3502 5.26035 15.62 5.38122 15.9823C5.4902 16.3094 5.73361 16.6278 6.17872 17.0647C6.62151 17.5003 6.94391 17.7399 7.27206 17.8425C7.60085 17.9453 7.86249 17.8755 8.11058 17.7737C8.31515 17.6898 8.45778 17.6188 8.68108 17.5994C8.90437 17.58 9.22381 17.6125 9.7379 17.8205C10.2533 18.0286 10.5095 18.2267 10.6569 18.3963C10.8044 18.5659 10.856 18.7167 10.9447 18.9192C11.0334 19.1218 11.1692 19.3865 11.5013 19.5536C11.8092 19.7084 12.204 19.7611 12.8269 19.7556C13.4509 19.7499 13.8477 19.6887 14.1532 19.5286C14.4872 19.3537 14.6128 19.0934 14.6981 18.8893C14.7837 18.6851 14.8334 18.5325 14.9779 18.3604C15.1223 18.1885 15.3741 17.985 15.886 17.768C16.3966 17.5512 16.7165 17.5114 16.9407 17.5271C17.1647 17.5427 17.3071 17.613 17.5133 17.6933C17.7196 17.7737 17.9859 17.8666 18.3549 17.7461C18.6825 17.6391 19.0011 17.396 19.4374 16.9514C19.8748 16.5069 20.1093 16.1848 20.2121 15.8557C20.3151 15.5266 20.2473 15.2646 20.1455 15.0164C20.0614 14.8115 19.9885 14.6675 19.969 14.4437C19.9494 14.2199 19.9818 13.9008 20.1902 13.3862C20.3984 12.8712 20.599 12.6174 20.7687 12.47C20.9383 12.3225 21.0888 12.2711 21.2915 12.1822C21.4943 12.0933 21.7581 11.9569 21.9258 11.6234C22.0807 11.3154 22.1333 10.9205 22.1279 10.297C22.1222 9.67361 22.0613 9.27685 21.9009 8.9715C21.7405 8.66615 21.5041 8.52854 21.2586 8.42595C21.0542 8.3404 20.9018 8.29135 20.7297 8.14688C20.5576 8.00241 20.3566 7.75281 20.1401 7.24172C19.9238 6.73045 19.8833 6.41139 19.8992 6.18708C19.915 5.96276 19.9851 5.81711 20.0655 5.61071C20.1458 5.40431 20.237 5.12605 20.1182 4.76915C20.0092 4.44204 19.7658 4.12447 19.3207 3.68738C18.8767 3.25046 18.5561 3.01458 18.2273 2.91177C17.8924 2.80698 17.6324 2.87846 17.3888 2.9784C17.1843 3.06227 17.0416 3.13325 16.8183 3.15267C16.595 3.17209 16.2728 3.13961 15.7586 2.93153C15.2432 2.72327 14.9901 2.5254 14.8424 2.3558C14.6949 2.18622 14.6434 2.03471 14.5546 1.83214C14.4658 1.62958 14.3363 1.37178 13.998 1.20152C13.6902 1.04667 13.2954 0.991087 12.6723 0.996444C12.0487 1.00197 11.652 1.06374 11.3465 1.22361L11.3465 1.22361ZM18.1199 17.0349C17.9904 17.0779 17.9555 17.0615 17.7875 16.996C17.6194 16.9306 17.3567 16.8054 16.9928 16.7799C16.629 16.7546 16.1794 16.8295 15.5926 17.0787C15.0046 17.3278 14.6402 17.5991 14.4055 17.8784C14.1707 18.1578 14.0759 18.432 14.0064 18.5983C13.9368 18.7647 13.9256 18.8007 13.8044 18.8641C13.683 18.9276 13.3931 19.0006 12.8222 19.0054C12.2527 19.0111 11.9612 18.9445 11.8393 18.8832C11.7175 18.8219 11.7039 18.7856 11.6314 18.6202C11.5589 18.455 11.4617 18.1786 11.2221 17.9032C10.9826 17.6278 10.6131 17.3645 10.021 17.1255C9.43022 16.8863 8.98088 16.82 8.6178 16.8516C8.2547 16.8832 7.9927 17.0131 7.82612 17.0816C7.65956 17.1499 7.62675 17.1663 7.4965 17.1256C7.36626 17.085 7.10779 16.9305 6.70182 16.531C6.29469 16.1314 6.13651 15.8775 6.09331 15.7474C6.04996 15.6173 6.06686 15.5835 6.13215 15.4156C6.19744 15.2477 6.32182 14.9849 6.34743 14.6209C6.37305 14.2571 6.30006 13.8073 6.05163 13.2199C5.80303 12.6325 5.53132 12.2674 5.25194 12.0327C4.97237 11.798 4.6958 11.7041 4.52909 11.6343C4.36238 11.5644 4.32469 11.5532 4.26107 11.4322C4.19745 11.311 4.12447 11.0192 4.11978 10.4493C4.11559 9.87948 4.18289 9.58871 4.24416 9.46648C4.3056 9.34427 4.34176 9.33172 4.50699 9.25923C4.67222 9.18675 4.94557 9.08915 5.22097 8.84976C5.49636 8.61037 5.76237 8.23958 6.00159 7.64795C6.24081 7.05632 6.30727 6.60535 6.27546 6.24176C6.24365 5.87832 6.11392 5.61984 6.04545 5.45296C5.97697 5.28608 5.96074 5.25107 6.00159 5.12049C6.04244 4.98991 6.19695 4.73311 6.59707 4.32667C6.99583 3.92037 7.25045 3.76033 7.38005 3.7173C7.50962 3.67444 7.54444 3.69051 7.71251 3.75614C7.88059 3.82176 8.14257 3.94681 8.50634 3.97226C8.87028 3.99771 9.3206 3.92556 9.90734 3.67646C10.4953 3.42736 10.8597 3.15533 11.0944 2.87591C11.3293 2.59651 11.421 2.32011 11.4907 2.1537C11.5603 1.9873 11.5744 1.9513 11.6957 1.88786C11.8171 1.82441 12.107 1.75142 12.6779 1.74657C13.2474 1.74155 13.5389 1.80985 13.6608 1.87112C13.7826 1.93239 13.7955 1.96871 13.868 2.13411C13.9405 2.29934 14.0386 2.57355 14.2781 2.84895C14.5177 3.12433 14.8872 3.38983 15.4793 3.62888C16.07 3.8681 16.5194 3.93222 16.8825 3.90058C17.2455 3.86894 17.5052 3.74188 17.672 3.67358C17.8385 3.60527 17.8735 3.58602 18.0037 3.6267C18.134 3.66738 18.3895 3.8219 18.7954 4.22133C19.2026 4.62092 19.3636 4.87788 19.407 5.00795C19.4503 5.13802 19.4334 5.17184 19.3681 5.33975C19.3029 5.50766 19.1785 5.77049 19.1529 6.13442C19.1272 6.4982 19.2002 6.94736 19.4487 7.53478C19.6973 8.12221 19.969 8.48798 20.2484 8.72271C20.5279 8.95741 20.8045 9.04848 20.9712 9.11812C21.1379 9.18793 21.1756 9.19914 21.2392 9.32018C21.3028 9.44138 21.3728 9.73317 21.3777 10.303C21.3819 10.8729 21.3176 11.1659 21.2561 11.288C21.1947 11.4102 21.1557 11.4206 20.9903 11.4931C20.8251 11.5656 20.5517 11.666 20.2763 11.9054C20.0009 12.1448 19.7349 12.5128 19.4957 13.1044C19.2565 13.6959 19.193 14.147 19.2247 14.5106C19.2565 14.874 19.3832 15.1354 19.4517 15.3023C19.5201 15.4692 19.5394 15.5007 19.4985 15.6311C19.4577 15.7616 19.3032 16.0193 18.9021 16.4257C18.5023 16.832 18.2499 16.9921 18.1203 17.0351L18.1199 17.0349ZM16.9946 6.14261C15.8899 5.03924 14.3985 4.41046 12.748 4.38638C11.0989 4.41132 9.60681 5.0401 8.50413 6.14261C7.38704 7.26424 6.7514 8.78545 6.7487 10.3778C6.7487 11.9738 7.38451 13.4971 8.50413 14.6226C9.62961 15.7492 11.161 16.3788 12.7504 16.3788C14.3397 16.3788 15.8681 15.7492 16.9948 14.6226C18.1154 13.4969 18.7484 11.9738 18.748 10.3667C18.7395 8.77135 18.1078 7.25901 16.9948 6.14244L16.9946 6.14261ZM1.19963 4.89679L0.0755237 6.39743C-0.0493627 6.56317 -0.0158793 6.79887 0.150187 6.92328C0.31592 7.04816 0.551627 7.01468 0.676029 6.84861L1.12417 6.2518V10.5605C1.12417 16.8912 6.23346 22.0009 12.5641 22.0009C18.8901 22.0009 23.9989 16.8912 23.9989 10.5605V9.99891C23.9981 9.79149 23.8292 9.62425 23.6218 9.62543C23.4159 9.62627 23.2491 9.793 23.2483 9.99891V10.5605C23.2483 16.4888 18.487 21.2509 12.5639 21.2509C6.63563 21.2509 1.87434 16.4888 1.87434 10.5605V6.24752L2.32549 6.84883C2.44987 7.01489 2.68557 7.04837 2.85133 6.92349C3.01739 6.79911 3.05087 6.5634 2.92599 6.39765L1.79969 4.89701C1.72905 4.80309 1.61839 4.74785 1.50087 4.74768C1.38235 4.74701 1.27052 4.80242 1.19921 4.89701L1.19963 4.89679ZM12.373 5.14874V5.49811C12.3722 5.7067 12.5416 5.87578 12.7502 5.87461C12.9573 5.87377 13.1245 5.7052 13.1237 5.49811V5.14874C14.3784 5.2383 15.569 5.77585 16.4646 6.67128C17.3542 7.5644 17.8916 8.74726 17.9835 9.99848H17.6239C17.4156 9.99765 17.2467 10.1667 17.2474 10.375C17.2482 10.5821 17.4168 10.7493 17.6239 10.7485H17.985C17.8971 12.0064 17.3587 13.1948 16.4646 14.0924C15.5688 14.9879 14.3783 15.5254 13.1236 15.6149V15.2495C13.1228 15.0436 12.9561 14.8768 12.7502 14.876C12.5427 14.8748 12.3738 15.0421 12.373 15.2495V15.6149C11.1193 15.5247 9.92986 14.9872 9.0349 14.0924C8.1408 13.1948 7.60056 12.0062 7.51236 10.7485H7.87564C8.08155 10.7476 8.24828 10.5809 8.24912 10.375C8.24995 10.1679 8.08272 9.99932 7.87564 9.99848H7.51387C7.60611 8.74731 8.14548 7.5644 9.03491 6.67128C9.92987 5.77649 11.1193 5.23895 12.373 5.14874ZM12.373 7.74786V10.7485C12.3732 10.8484 12.4132 10.944 12.4844 11.0143L13.6078 12.1384C13.7545 12.2857 13.9929 12.2857 14.1395 12.1384C14.285 11.9921 14.285 11.7559 14.1395 11.6096L13.1237 10.5938V7.74787C13.1228 7.54196 12.9561 7.37522 12.7502 7.37439C12.5428 7.37321 12.3739 7.54045 12.373 7.74786ZM4.12455 22.3742C3.91747 22.375 3.75023 22.5436 3.75107 22.7507V23.8748C3.75023 24.0818 3.91747 24.2504 4.12455 24.2513C4.33314 24.2524 4.50255 24.0834 4.50172 23.8748V22.7507C4.50255 22.5421 4.33314 22.373 4.12455 22.3742ZM9.37569 22.3742C9.16743 22.3733 8.99852 22.5424 8.99919 22.7507V23.8748C8.99835 24.083 9.16743 24.2521 9.37569 24.2513C9.58277 24.2504 9.75001 24.0819 9.74917 23.8748V22.7507C9.75 22.5436 9.58277 22.375 9.37569 22.3742ZM14.6238 22.3742C14.4167 22.375 14.2495 22.5436 14.2503 22.7507V23.8748C14.2495 24.0818 14.4167 24.2504 14.6238 24.2513C14.8321 24.2521 15.001 24.083 15.0003 23.8748V22.7507C15.0012 22.5424 14.8321 22.3733 14.6238 22.3742ZM19.875 22.3742C19.6667 22.3733 19.4976 22.5424 19.4985 22.7507V23.8748C19.4976 24.083 19.6667 24.2521 19.875 24.2513C20.082 24.2504 20.2493 24.0819 20.2484 23.8748V22.7507C20.2493 22.5436 20.082 22.375 19.875 22.3742ZM6.74905 23.119C6.54197 23.1198 6.37473 23.2884 6.37557 23.4955V24.6189C6.37439 24.8263 6.54163 24.9952 6.74905 24.9961C6.9578 24.9973 7.12738 24.8277 7.12621 24.6189V23.4955C7.12705 23.2869 6.95764 23.1178 6.74905 23.119ZM12.0002 23.119C11.7919 23.1181 11.623 23.2872 11.6237 23.4955V24.6189C11.6225 24.8275 11.7916 24.9969 12.0002 24.9961C12.2076 24.9952 12.3748 24.8263 12.3737 24.6189V23.4955C12.3745 23.2884 12.2073 23.1198 12.0002 23.119ZM17.2483 23.119C17.0412 23.1198 16.874 23.2884 16.8748 23.4955V24.6189C16.8737 24.8263 17.0409 24.9952 17.2483 24.9961C17.4569 24.9969 17.626 24.8275 17.6248 24.6189V23.4955C17.6257 23.2872 17.4566 23.1181 17.2483 23.119Z" fill="white"/>
</svg>
