<svg width="21" height="25" viewBox="0 0 21 25" fill="none" xmlns="http://www.w3.org/2000/svg">
<path d="M1.83209 10.8893C2.21205 8.47448 3.51062 6.35243 5.48858 4.9137C7.20638 3.66391 9.258 3.0602 11.3516 3.17214L9.58334 4.93877L10.1041 5.4591L12.2944 3.27063C12.2976 3.27116 12.3006 3.27151 12.3037 3.27203L12.3057 3.25942L12.6777 2.88767L12.4068 2.617L12.418 2.54517C12.3856 2.54009 12.3532 2.53588 12.3207 2.53115L10.1041 0.316406L9.58333 0.836737L11.1761 2.42796C8.98841 2.35788 6.85245 3.01117 5.05493 4.31876C2.91811 5.87321 1.51506 8.16608 1.10457 10.7747C0.735483 13.1203 1.22292 15.5205 2.47728 17.5338L3.10255 17.1449C1.94184 15.2821 1.4905 13.0603 1.83222 10.8894L1.83209 10.8893Z" fill="white"/>
<path d="M4.06409 18.4258L3.51562 18.9168C4.05673 19.5198 4.67024 20.0549 5.33913 20.5072L5.75188 19.8977C5.13276 19.4792 4.56489 18.9839 4.06409 18.4258Z" fill="white"/>
<path d="M19.4914 7.09766L18.8661 7.48658C20.027 9.34953 20.4782 11.5713 20.1366 13.7425C19.7567 16.1573 18.4581 18.2793 16.4802 19.7181C14.7624 20.9677 12.7106 21.5714 10.6171 21.4594L12.3854 19.6928L11.8646 19.1725L9.6743 21.361C9.67115 21.3604 9.66817 21.3601 9.66501 21.3596L9.66308 21.3722L9.29102 21.7439L9.56191 22.0146L9.55069 22.0864C9.58313 22.0915 9.61574 22.0961 9.64818 22.1008L11.8646 24.3154L12.3854 23.795L10.7925 22.2034C10.8987 22.2068 11.0048 22.2089 11.1107 22.2089C13.1867 22.2089 15.2036 21.557 16.9141 20.3128C19.0509 18.7584 20.4539 16.4655 20.8644 13.8569C21.2333 11.5113 20.7459 9.11104 19.4915 7.0978L19.4914 7.09766Z" fill="white"/>
<path d="M17.9046 6.20641L18.453 5.71537C17.9119 5.11238 17.2984 4.57734 16.6295 4.125L16.2168 4.73449C16.8359 5.15301 17.4038 5.64827 17.9046 6.20641Z" fill="white"/>
<path d="M17.021 12.3315C17.021 8.94806 14.2661 6.19531 10.8796 6.19531C7.49336 6.19531 4.73828 8.94806 4.73828 12.3315C4.73828 15.7149 7.49318 18.4676 10.8796 18.4676C14.2659 18.4676 17.021 15.7149 17.021 12.3315ZM5.47487 12.3315C5.47487 9.35376 7.89945 6.93127 10.8796 6.93127C13.8599 6.93127 16.2844 9.3538 16.2844 12.3315C16.2844 15.3092 13.8598 17.7317 10.8796 17.7317C7.8994 17.7317 5.47487 15.3089 5.47487 12.3315Z" fill="white"/>
<path d="M11.2821 16.2771V15.4528L11.5388 15.4195C12.7227 15.2662 13.4581 14.5828 13.4581 13.6359C13.4581 12.4944 12.7401 11.9826 10.9795 11.8691C9.9999 11.8067 9.50296 11.4711 9.50296 10.871C9.50296 10.5904 9.64604 9.93765 10.9723 9.93765C11.6014 9.93765 12.1037 10.0838 12.5289 10.3939L13.0327 9.8019C12.5958 9.47902 12.1262 9.30296 11.5448 9.23972L11.2821 9.21117V8.38672H10.4802V9.23041L10.2403 9.27578C9.59995 9.39701 8.52586 9.77207 8.52586 10.9234C8.52586 12.1804 9.8237 12.5427 10.9136 12.625C11.42 12.6539 12.4678 12.7152 12.4678 13.5968C12.4678 14.1935 11.8441 14.6609 11.0477 14.6609C11.0335 14.6609 11.0195 14.6607 11.0053 14.6604C10.3643 14.6488 9.43601 14.3659 8.84391 13.9104L8.39258 14.5642C8.91317 15.0444 9.50073 15.3148 10.224 15.4097L10.4802 15.4433V16.2767L11.2821 16.2768L11.2821 16.2771Z" fill="white"/>
</svg>
