<svg width="105" height="26" viewBox="0 0 105 26" fill="none" xmlns="http://www.w3.org/2000/svg">
<path d="M7.24316 0H26.0003V18.7571H7.24316V0Z" fill="#40A69E" fill-opacity="0.67"/>
<path d="M3.52832 3.52881H22.2855V22.286H3.52832V3.52881Z" fill="#40A69E" fill-opacity="0.67"/>
<path d="M0 7.24268H18.7571V25.9998H0V7.24268Z" fill="#40A69E" fill-opacity="0.67"/>
<path d="M17.7359 12.7214C17.7359 15.2343 15.6572 17.2714 13.0931 17.2714C10.5289 17.2714 8.4502 15.2343 8.4502 12.7214C8.4502 10.2085 10.5289 8.17139 13.0931 8.17139C15.6572 8.17139 17.7359 10.2085 17.7359 12.7214Z" fill="#123F4E" fill-opacity="0.41"/>
<path d="M35.72 19.5V6.3H41.5C43.1 6.3 44.28 6.61333 45.04 7.24C45.8 7.86667 46.18 8.75333 46.18 9.9C46.18 10.6067 45.9667 11.2333 45.54 11.78C45.1133 12.3267 44.4867 12.6733 43.66 12.82V12.84C44.58 12.9733 45.2867 13.32 45.78 13.88C46.2733 14.44 46.52 15.1067 46.52 15.88C46.52 17.0133 46.1067 17.9 45.28 18.54C44.4667 19.18 43.2733 19.5 41.7 19.5H35.72ZM38.4 17.42H41.46C42.2067 17.42 42.76 17.2667 43.12 16.96C43.48 16.6533 43.66 16.2267 43.66 15.68C43.66 15.12 43.48 14.6933 43.12 14.4C42.76 14.1067 42.2067 13.96 41.46 13.96H38.4V17.42ZM38.4 11.84H41.14C42.5933 11.84 43.32 11.2733 43.32 10.14C43.32 9.00667 42.5933 8.44 41.14 8.44H38.4V11.84ZM53.0975 9.3C54.1108 9.3 54.9975 9.50667 55.7575 9.92C56.5308 10.3333 57.1308 10.9267 57.5575 11.7C57.9975 12.4733 58.2175 13.4067 58.2175 14.5C58.2175 15.58 57.9975 16.5133 57.5575 17.3C57.1308 18.0733 56.5308 18.6667 55.7575 19.08C54.9975 19.4933 54.1108 19.7 53.0975 19.7C52.0975 19.7 51.2108 19.4933 50.4375 19.08C49.6642 18.6667 49.0575 18.0733 48.6175 17.3C48.1908 16.5133 47.9775 15.58 47.9775 14.5C47.9775 13.4067 48.1908 12.4733 48.6175 11.7C49.0575 10.9267 49.6642 10.3333 50.4375 9.92C51.2108 9.50667 52.0975 9.3 53.0975 9.3ZM53.0975 11.34C52.5908 11.34 52.1575 11.46 51.7975 11.7C51.4508 11.9267 51.1842 12.2733 50.9975 12.74C50.8108 13.2067 50.7175 13.7933 50.7175 14.5C50.7175 15.2067 50.8108 15.7933 50.9975 16.26C51.1842 16.7267 51.4508 17.08 51.7975 17.32C52.1575 17.5467 52.5908 17.66 53.0975 17.66C53.5908 17.66 54.0108 17.5467 54.3575 17.32C54.7175 17.08 54.9908 16.7267 55.1775 16.26C55.3642 15.7933 55.4575 15.2067 55.4575 14.5C55.4575 13.7933 55.3642 13.2067 55.1775 12.74C54.9908 12.2733 54.7175 11.9267 54.3575 11.7C54.0108 11.46 53.5908 11.34 53.0975 11.34ZM60.1702 19.5V9.5H62.6302L62.7902 12.5L62.4502 12.18C62.6102 11.5267 62.8635 10.9867 63.2102 10.56C63.5568 10.1333 63.9768 9.82 64.4702 9.62C64.9768 9.40667 65.5302 9.3 66.1302 9.3C66.8235 9.3 67.4368 9.43333 67.9702 9.7C68.5168 9.96667 68.9435 10.3733 69.2502 10.92C69.5702 11.4533 69.7302 12.1267 69.7302 12.94V19.5H66.9902V13.72C66.9902 12.8667 66.8235 12.28 66.4902 11.96C66.1568 11.6267 65.7235 11.46 65.1902 11.46C64.8168 11.46 64.4502 11.5533 64.0902 11.74C63.7435 11.9133 63.4568 12.2 63.2302 12.6C63.0168 13 62.9102 13.5333 62.9102 14.2V19.5H60.1702ZM77.9744 6.3C78.9877 6.3 79.8544 6.47333 80.5744 6.82C81.2944 7.15333 81.8477 7.64 82.2344 8.28C82.6344 8.90667 82.8344 9.66667 82.8344 10.56C82.8344 11.4533 82.6344 12.22 82.2344 12.86C81.8477 13.4867 81.2944 13.9733 80.5744 14.32C79.8544 14.6533 78.9877 14.82 77.9744 14.82H75.1944V19.5H72.4344V6.3H77.9744ZM77.5544 12.64C78.381 12.64 79.001 12.4667 79.4144 12.12C79.8277 11.76 80.0344 11.24 80.0344 10.56C80.0344 9.86667 79.8277 9.34667 79.4144 9C79.001 8.65333 78.381 8.48 77.5544 8.48H75.1944V12.64H77.5544ZM90.4441 13.12C90.4441 12.5467 90.2774 12.1 89.9441 11.78C89.6241 11.46 89.1974 11.3 88.6641 11.3C88.1707 11.3 87.7374 11.4267 87.3641 11.68C86.9907 11.9333 86.7174 12.3533 86.5441 12.94L84.2041 12.22C84.4307 11.34 84.9241 10.6333 85.6841 10.1C86.4574 9.56667 87.4907 9.3 88.7841 9.3C89.6641 9.3 90.4307 9.44 91.0841 9.72C91.7374 9.98667 92.2441 10.3933 92.6041 10.94C92.9774 11.4867 93.1641 12.1733 93.1641 13V17.06C93.1641 17.5667 93.4041 17.82 93.8841 17.82C94.1107 17.82 94.3241 17.7867 94.5241 17.72L94.3641 19.42C94.0174 19.5933 93.5841 19.68 93.0641 19.68C92.5974 19.68 92.1774 19.6 91.8041 19.44C91.4307 19.28 91.1374 19.04 90.9241 18.72C90.7107 18.3867 90.6041 17.9733 90.6041 17.48V17.4L91.0841 17.32C91.0041 17.8267 90.7841 18.26 90.4241 18.62C90.0641 18.9667 89.6241 19.2333 89.1041 19.42C88.5974 19.6067 88.0707 19.7 87.5241 19.7C86.8441 19.7 86.2574 19.6 85.7641 19.4C85.2707 19.1867 84.8907 18.88 84.6241 18.48C84.3574 18.08 84.2241 17.5867 84.2241 17C84.2241 16.2533 84.4641 15.6467 84.9441 15.18C85.4241 14.7 86.1107 14.3733 87.0041 14.2L90.7641 13.44L90.7441 15.14L88.3441 15.62C87.8907 15.7133 87.5441 15.84 87.3041 16C87.0774 16.1467 86.9641 16.3933 86.9641 16.74C86.9641 17.0733 87.0841 17.3267 87.3241 17.5C87.5774 17.6733 87.8774 17.76 88.2241 17.76C88.5041 17.76 88.7774 17.7267 89.0441 17.66C89.3107 17.5933 89.5507 17.4867 89.7641 17.34C89.9774 17.1933 90.1441 16.9933 90.2641 16.74C90.3841 16.4867 90.4441 16.18 90.4441 15.82V13.12ZM104.663 9.5L100.623 20.12C100.303 21.0267 99.9434 21.7467 99.5434 22.28C99.1568 22.8133 98.7034 23.2 98.1834 23.44C97.6768 23.68 97.0701 23.8 96.3634 23.8C95.8434 23.8 95.3634 23.7333 94.9234 23.6C94.4968 23.48 94.1234 23.32 93.8034 23.12L94.3834 21.14C94.6368 21.34 94.9034 21.48 95.1834 21.56C95.4634 21.6533 95.7834 21.7 96.1434 21.7C96.5168 21.7 96.8368 21.62 97.1034 21.46C97.3834 21.3 97.6168 20.98 97.8034 20.5L98.1434 19.64L97.0434 17.04L93.9834 9.5H97.0234L98.9234 15.5L99.4434 17.5L100.063 15.38L101.883 9.5H104.663Z" fill="white"/>
</svg>
