<svg width="95" height="95" viewBox="0 0 95 95" fill="none" xmlns="http://www.w3.org/2000/svg">
<rect width="95" height="95" rx="10" fill="#2F2B32"/>
<path fill-rule="evenodd" clip-rule="evenodd" d="M35.2048 42.4467L47.505 30.1465L59.8157 42.4572L66.9723 35.3006L47.505 15.8333L28.0482 35.29L35.2048 42.4467ZM15.833 47.5038L22.9878 40.349L30.1425 47.5038L22.9878 54.6586L15.833 47.5038ZM47.5039 64.8648L35.2038 52.5647L28.0366 59.7108L28.0471 59.7213L47.5039 79.1781L66.9712 59.7108L59.8146 52.5541L47.5039 64.8648ZM64.8599 47.5086L72.0147 40.3538L79.1694 47.5086L72.0147 54.6634L64.8599 47.5086ZM47.5022 40.2443L54.7642 47.5063L47.5022 54.7789L40.2402 47.5168V47.4958L41.5155 46.2204L42.1373 45.6091L47.5022 40.2443Z" fill="#F3BA2F"/>
</svg>
