<svg width="95" height="95" viewBox="0 0 95 95" fill="none" xmlns="http://www.w3.org/2000/svg">
<rect width="95" height="95" rx="10" fill="#E9E9E9"/>
<g clip-path="url(#clip0_637_3107)">
<path d="M47.4962 11.875L47.0322 13.408V57.8928L47.4962 58.343L68.7399 46.1373L47.4962 11.875Z" fill="#343434"/>
<path d="M47.4947 11.875L26.251 46.1373L47.4947 58.3432V36.7516V11.875Z" fill="#8C8C8C"/>
<path d="M47.4949 62.2529L47.2334 62.5627V78.4092L47.4949 79.1515L68.7514 50.0532L47.4949 62.2529Z" fill="#3C3C3B"/>
<path d="M47.4947 79.1516V62.2529L26.251 50.0532L47.4947 79.1516Z" fill="#8C8C8C"/>
<path d="M47.4961 58.343L68.7395 46.1374L47.4961 36.7517V58.343Z" fill="#141414"/>
<path d="M26.251 46.1374L47.4943 58.3431V36.7517L26.251 46.1374Z" fill="#393939"/>
</g>
<defs>
<clipPath id="clip0_637_3107">
<rect width="42.5" height="67.2917" fill="white" transform="translate(26.251 11.875)"/>
</clipPath>
</defs>
</svg>
