<svg width="94" height="94" viewBox="0 0 94 94" fill="none" xmlns="http://www.w3.org/2000/svg">
<rect width="94" height="94" rx="10" fill="#8247E5"/>
<path d="M62.955 36.4427C61.7987 35.7612 60.2957 35.7612 59.024 36.4427L50.0054 41.667L43.8775 45.0742L34.8591 50.2985C33.7029 50.9799 32.1998 50.9799 30.928 50.2985L23.7595 46.2098C22.6033 45.5284 21.7939 44.2792 21.7939 42.9163V34.8527C21.7939 33.4898 22.4877 32.2405 23.7595 31.5591L30.8124 27.584C31.9686 26.9026 33.4717 26.9026 34.7435 27.584L41.7964 31.5591C42.9525 32.2405 43.7619 33.4898 43.7619 34.8527V40.077L49.8898 36.5563V31.3319C49.8898 29.9691 49.1962 28.7198 47.9243 28.0383L34.8591 20.5426C33.7029 19.8611 32.1998 19.8611 30.928 20.5426L17.6316 28.0383C16.3597 28.7198 15.666 29.9691 15.666 31.3319V46.4371C15.666 47.7999 16.3597 49.0493 17.6316 49.7307L30.928 57.2264C32.0842 57.9079 33.5873 57.9079 34.8591 57.2264L43.8775 52.1156L50.0054 48.5949L59.024 43.4842C60.1801 42.8027 61.6831 42.8027 62.955 43.4842L70.0079 47.4592C71.164 48.1406 71.9734 49.39 71.9734 50.7528V58.8163C71.9734 60.1794 71.2798 61.4285 70.0079 62.11L62.955 66.1986C61.7987 66.8801 60.2957 66.8801 59.024 66.1986L51.9711 62.2236C50.8148 61.5422 50.0054 60.2928 50.0054 58.93V53.7057L43.8775 57.2264V62.4507C43.8775 63.8135 44.5713 65.0629 45.843 65.7443L59.1396 73.24C60.2957 73.9214 61.7987 73.9214 63.0706 73.24L76.3672 65.7443C77.5233 65.0629 78.3327 63.8135 78.3327 62.4507V47.3455C78.3327 45.9827 77.6388 44.7335 76.3672 44.0521L62.955 36.4427Z" fill="white"/>
</svg>
